<mxfile host="app.diagrams.net" modified="2023-08-01T11:09:43.058Z" agent="Mozilla/5.0 (Windows NT 10.0; Win64; x64) AppleWebKit/537.36 (KHTML, like Gecko) Chrome/116.0.0.0 Safari/537.36 Edg/116.0.1938.36" etag="h9nLqni0WnE3GRZjIujV" version="21.6.6" type="device">
  <diagram id="C5RBs43oDa-KdzZeNtuy" name="Page-1">
    <mxGraphModel dx="835" dy="443" grid="1" gridSize="10" guides="1" tooltips="1" connect="1" arrows="1" fold="1" page="1" pageScale="1" pageWidth="827" pageHeight="1169" math="0" shadow="0">
      <root>
        <mxCell id="WIyWlLk6GJQsqaUBKTNV-0" />
        <mxCell id="WIyWlLk6GJQsqaUBKTNV-1" parent="WIyWlLk6GJQsqaUBKTNV-0" />
        <mxCell id="zkfFHV4jXpPFQw0GAbJ--17" value="client(field)" style="swimlane;fontStyle=1;align=center;verticalAlign=bottom;childLayout=stackLayout;horizontal=1;startSize=26;horizontalStack=0;resizeParent=1;resizeLast=0;collapsible=1;marginBottom=0;rounded=0;shadow=0;strokeWidth=1;fontFamily=Helvetica;fontSize=20;" parent="WIyWlLk6GJQsqaUBKTNV-1" vertex="1">
          <mxGeometry x="140" y="260" width="240" height="500" as="geometry">
            <mxRectangle x="160" y="260" width="160" height="26" as="alternateBounds" />
          </mxGeometry>
        </mxCell>
        <mxCell id="zkfFHV4jXpPFQw0GAbJ--18" value="tcpSocket：QTcpSocket* " style="text;align=left;verticalAlign=top;spacingLeft=4;spacingRight=4;overflow=hidden;rotatable=0;points=[[0,0.5],[1,0.5]];portConstraint=eastwest;fontFamily=Helvetica;fontSize=14;fontStyle=0" parent="zkfFHV4jXpPFQw0GAbJ--17" vertex="1">
          <mxGeometry y="26" width="240" height="26" as="geometry" />
        </mxCell>
        <mxCell id="zkfFHV4jXpPFQw0GAbJ--19" value="isConnected：bool" style="text;align=left;verticalAlign=top;spacingLeft=4;spacingRight=4;overflow=hidden;rotatable=0;points=[[0,0.5],[1,0.5]];portConstraint=eastwest;rounded=0;shadow=0;html=0;fontFamily=Helvetica;fontSize=14;fontStyle=0" parent="zkfFHV4jXpPFQw0GAbJ--17" vertex="1">
          <mxGeometry y="52" width="240" height="26" as="geometry" />
        </mxCell>
        <mxCell id="zkfFHV4jXpPFQw0GAbJ--20" value="timer：QTimer*" style="text;align=left;verticalAlign=top;spacingLeft=4;spacingRight=4;overflow=hidden;rotatable=0;points=[[0,0.5],[1,0.5]];portConstraint=eastwest;rounded=0;shadow=0;html=0;fontFamily=Helvetica;fontSize=14;fontStyle=0" parent="zkfFHV4jXpPFQw0GAbJ--17" vertex="1">
          <mxGeometry y="78" width="240" height="26" as="geometry" />
        </mxCell>
        <mxCell id="zkfFHV4jXpPFQw0GAbJ--21" value="frequency：double" style="text;align=left;verticalAlign=top;spacingLeft=4;spacingRight=4;overflow=hidden;rotatable=0;points=[[0,0.5],[1,0.5]];portConstraint=eastwest;rounded=0;shadow=0;html=0;fontFamily=Helvetica;fontSize=14;fontStyle=0" parent="zkfFHV4jXpPFQw0GAbJ--17" vertex="1">
          <mxGeometry y="104" width="240" height="26" as="geometry" />
        </mxCell>
        <mxCell id="zkfFHV4jXpPFQw0GAbJ--22" value="vlotage：double" style="text;align=left;verticalAlign=top;spacingLeft=4;spacingRight=4;overflow=hidden;rotatable=0;points=[[0,0.5],[1,0.5]];portConstraint=eastwest;rounded=0;shadow=0;html=0;fontFamily=Helvetica;fontSize=14;fontStyle=0" parent="zkfFHV4jXpPFQw0GAbJ--17" vertex="1">
          <mxGeometry y="130" width="240" height="26" as="geometry" />
        </mxCell>
        <mxCell id="Ztqg2xYtgC4yXmTaxhsq-4" value="&lt;div style=&quot;margin-top: 0px; margin-bottom: 0px; font-size: 14px;&quot;&gt;current：double&lt;/div&gt;" style="text;strokeColor=none;fillColor=none;align=left;verticalAlign=top;spacingLeft=4;spacingRight=4;overflow=hidden;rotatable=0;points=[[0,0.5],[1,0.5]];portConstraint=eastwest;whiteSpace=wrap;html=1;fontFamily=Helvetica;fontSize=14;fontStyle=0" vertex="1" parent="zkfFHV4jXpPFQw0GAbJ--17">
          <mxGeometry y="156" width="240" height="26" as="geometry" />
        </mxCell>
        <mxCell id="Ztqg2xYtgC4yXmTaxhsq-5" value="&lt;div style=&quot;margin-top: 0px; margin-bottom: 0px; font-size: 14px;&quot;&gt;power：double&lt;/div&gt;" style="text;strokeColor=none;fillColor=none;align=left;verticalAlign=top;spacingLeft=4;spacingRight=4;overflow=hidden;rotatable=0;points=[[0,0.5],[1,0.5]];portConstraint=eastwest;whiteSpace=wrap;html=1;fontFamily=Helvetica;fontSize=14;fontStyle=0" vertex="1" parent="zkfFHV4jXpPFQw0GAbJ--17">
          <mxGeometry y="182" width="240" height="26" as="geometry" />
        </mxCell>
        <mxCell id="Ztqg2xYtgC4yXmTaxhsq-6" value="&lt;div style=&quot;margin-top: 0px; margin-bottom: 0px; font-size: 14px;&quot;&gt;time：int&lt;/div&gt;" style="text;strokeColor=none;fillColor=none;align=left;verticalAlign=top;spacingLeft=4;spacingRight=4;overflow=hidden;rotatable=0;points=[[0,0.5],[1,0.5]];portConstraint=eastwest;whiteSpace=wrap;html=1;fontFamily=Helvetica;fontSize=14;fontStyle=0" vertex="1" parent="zkfFHV4jXpPFQw0GAbJ--17">
          <mxGeometry y="208" width="240" height="26" as="geometry" />
        </mxCell>
        <mxCell id="Ztqg2xYtgC4yXmTaxhsq-8" value="&lt;div style=&quot;margin-top: 0px; margin-bottom: 0px; font-size: 14px;&quot;&gt;isAlarmTriggered：bool&lt;/div&gt;" style="text;strokeColor=none;fillColor=none;align=left;verticalAlign=top;spacingLeft=4;spacingRight=4;overflow=hidden;rotatable=0;points=[[0,0.5],[1,0.5]];portConstraint=eastwest;whiteSpace=wrap;html=1;fontFamily=Helvetica;fontSize=14;fontStyle=0" vertex="1" parent="zkfFHV4jXpPFQw0GAbJ--17">
          <mxGeometry y="234" width="240" height="26" as="geometry" />
        </mxCell>
        <mxCell id="Ztqg2xYtgC4yXmTaxhsq-12" value="&lt;div style=&quot;margin-top: 0px; margin-bottom: 0px; font-size: 14px;&quot;&gt;alarmCounter：int&lt;/div&gt;" style="text;strokeColor=none;fillColor=none;align=left;verticalAlign=top;spacingLeft=4;spacingRight=4;overflow=hidden;rotatable=0;points=[[0,0.5],[1,0.5]];portConstraint=eastwest;whiteSpace=wrap;html=1;fontFamily=Helvetica;fontSize=14;fontStyle=0" vertex="1" parent="zkfFHV4jXpPFQw0GAbJ--17">
          <mxGeometry y="260" width="240" height="26" as="geometry" />
        </mxCell>
        <mxCell id="Ztqg2xYtgC4yXmTaxhsq-11" value="&lt;div style=&quot;margin-top: 0px; margin-bottom: 0px; font-size: 14px;&quot;&gt;flashCounter：int&lt;/div&gt;" style="text;strokeColor=none;fillColor=none;align=left;verticalAlign=top;spacingLeft=4;spacingRight=4;overflow=hidden;rotatable=0;points=[[0,0.5],[1,0.5]];portConstraint=eastwest;whiteSpace=wrap;html=1;fontFamily=Helvetica;fontSize=14;fontStyle=0" vertex="1" parent="zkfFHV4jXpPFQw0GAbJ--17">
          <mxGeometry y="286" width="240" height="26" as="geometry" />
        </mxCell>
        <mxCell id="Ztqg2xYtgC4yXmTaxhsq-10" value="&lt;div style=&quot;margin-top: 0px; margin-bottom: 0px; font-size: 14px;&quot;&gt;alarmThreshold：const &lt;span style=&quot;background-color: initial; color: rgb(128, 128, 0); font-size: 14px;&quot;&gt;int&lt;/span&gt;&lt;/div&gt;" style="text;strokeColor=none;fillColor=none;align=left;verticalAlign=top;spacingLeft=4;spacingRight=4;overflow=hidden;rotatable=0;points=[[0,0.5],[1,0.5]];portConstraint=eastwest;whiteSpace=wrap;html=1;fontFamily=Helvetica;fontSize=14;fontStyle=0" vertex="1" parent="zkfFHV4jXpPFQw0GAbJ--17">
          <mxGeometry y="312" width="240" height="26" as="geometry" />
        </mxCell>
        <mxCell id="Ztqg2xYtgC4yXmTaxhsq-9" value="&lt;div style=&quot;margin-top: 0px; margin-bottom: 0px; font-size: 14px;&quot;&gt;alarmPercentage：const &lt;span style=&quot;background-color: initial; color: rgb(128, 128, 0); font-size: 14px;&quot;&gt;double&lt;/span&gt;&lt;/div&gt;" style="text;strokeColor=none;fillColor=none;align=left;verticalAlign=top;spacingLeft=4;spacingRight=4;overflow=hidden;rotatable=0;points=[[0,0.5],[1,0.5]];portConstraint=eastwest;whiteSpace=wrap;html=1;fontFamily=Helvetica;fontSize=14;fontStyle=0" vertex="1" parent="zkfFHV4jXpPFQw0GAbJ--17">
          <mxGeometry y="338" width="240" height="26" as="geometry" />
        </mxCell>
        <mxCell id="Ztqg2xYtgC4yXmTaxhsq-15" value="&lt;div style=&quot;margin-top: 0px; margin-bottom: 0px; font-size: 14px;&quot;&gt;timeData：QVector&amp;lt;&lt;span style=&quot;background-color: initial; color: rgb(128, 128, 0); font-size: 14px;&quot;&gt;double&lt;/span&gt;&lt;span style=&quot;background-color: initial; font-size: 14px;&quot;&gt;&amp;gt;&lt;/span&gt;&lt;/div&gt;" style="text;strokeColor=none;fillColor=none;align=left;verticalAlign=top;spacingLeft=4;spacingRight=4;overflow=hidden;rotatable=0;points=[[0,0.5],[1,0.5]];portConstraint=eastwest;whiteSpace=wrap;html=1;fontFamily=Helvetica;fontSize=14;fontStyle=0" vertex="1" parent="zkfFHV4jXpPFQw0GAbJ--17">
          <mxGeometry y="364" width="240" height="26" as="geometry" />
        </mxCell>
        <mxCell id="Ztqg2xYtgC4yXmTaxhsq-17" value="&lt;div style=&quot;margin-top: 0px; margin-bottom: 0px; font-size: 14px;&quot;&gt;frequencyData：QVector&amp;lt;double&amp;gt;[]&lt;/div&gt;" style="text;strokeColor=none;fillColor=none;align=left;verticalAlign=top;spacingLeft=4;spacingRight=4;overflow=hidden;rotatable=0;points=[[0,0.5],[1,0.5]];portConstraint=eastwest;whiteSpace=wrap;html=1;fontFamily=Helvetica;fontSize=14;fontStyle=0" vertex="1" parent="zkfFHV4jXpPFQw0GAbJ--17">
          <mxGeometry y="390" width="240" height="26" as="geometry" />
        </mxCell>
        <mxCell id="Ztqg2xYtgC4yXmTaxhsq-16" value="&lt;div style=&quot;margin-top: 0px; margin-bottom: 0px; font-size: 14px;&quot;&gt;voltageData：QVector&amp;lt;double&amp;gt;[]&lt;/div&gt;" style="text;strokeColor=none;fillColor=none;align=left;verticalAlign=top;spacingLeft=4;spacingRight=4;overflow=hidden;rotatable=0;points=[[0,0.5],[1,0.5]];portConstraint=eastwest;whiteSpace=wrap;html=1;fontFamily=Helvetica;fontSize=14;fontStyle=0" vertex="1" parent="zkfFHV4jXpPFQw0GAbJ--17">
          <mxGeometry y="416" width="240" height="26" as="geometry" />
        </mxCell>
        <mxCell id="Ztqg2xYtgC4yXmTaxhsq-14" value="&lt;div style=&quot;margin-top: 0px; margin-bottom: 0px; font-size: 14px;&quot;&gt;currentData：QVector&amp;lt;double&amp;gt;[]&lt;/div&gt;" style="text;strokeColor=none;fillColor=none;align=left;verticalAlign=top;spacingLeft=4;spacingRight=4;overflow=hidden;rotatable=0;points=[[0,0.5],[1,0.5]];portConstraint=eastwest;whiteSpace=wrap;html=1;fontFamily=Helvetica;fontSize=14;fontStyle=0" vertex="1" parent="zkfFHV4jXpPFQw0GAbJ--17">
          <mxGeometry y="442" width="240" height="26" as="geometry" />
        </mxCell>
        <mxCell id="Ztqg2xYtgC4yXmTaxhsq-7" value="&lt;div style=&quot;margin-top: 0px; margin-bottom: 0px; font-size: 14px;&quot;&gt;powerData：QVector&amp;lt;double&amp;gt;[]&lt;/div&gt;" style="text;strokeColor=none;fillColor=none;align=left;verticalAlign=top;spacingLeft=4;spacingRight=4;overflow=hidden;rotatable=0;points=[[0,0.5],[1,0.5]];portConstraint=eastwest;whiteSpace=wrap;html=1;fontFamily=Helvetica;fontSize=14;fontStyle=0" vertex="1" parent="zkfFHV4jXpPFQw0GAbJ--17">
          <mxGeometry y="468" width="240" height="26" as="geometry" />
        </mxCell>
        <mxCell id="Ztqg2xYtgC4yXmTaxhsq-18" value="client(method)" style="swimlane;align=center;verticalAlign=bottom;childLayout=stackLayout;horizontal=1;startSize=26;horizontalStack=0;resizeParent=1;resizeParentMax=0;resizeLast=0;collapsible=1;marginBottom=0;whiteSpace=wrap;fontFamily=Helvetica;labelBorderColor=none;labelBackgroundColor=none;fontSize=20;" vertex="1" parent="WIyWlLk6GJQsqaUBKTNV-1">
          <mxGeometry x="380" y="260" width="240" height="500" as="geometry" />
        </mxCell>
        <mxCell id="Ztqg2xYtgC4yXmTaxhsq-21" value="readData()：void" style="text;strokeColor=none;fillColor=none;align=left;verticalAlign=top;spacingLeft=4;spacingRight=4;overflow=hidden;rotatable=0;points=[[0,0.5],[1,0.5]];portConstraint=eastwest;whiteSpace=wrap;fontFamily=Helvetica;labelBorderColor=none;labelBackgroundColor=none;" vertex="1" parent="Ztqg2xYtgC4yXmTaxhsq-18">
          <mxGeometry y="26" width="240" height="24" as="geometry" />
        </mxCell>
        <mxCell id="Ztqg2xYtgC4yXmTaxhsq-22" value="updateSensorValues()：void" style="text;strokeColor=none;fillColor=none;align=left;verticalAlign=top;spacingLeft=4;spacingRight=4;overflow=hidden;rotatable=0;points=[[0,0.5],[1,0.5]];portConstraint=eastwest;whiteSpace=wrap;fontFamily=Helvetica;labelBorderColor=none;labelBackgroundColor=none;" vertex="1" parent="Ztqg2xYtgC4yXmTaxhsq-18">
          <mxGeometry y="50" width="240" height="26" as="geometry" />
        </mxCell>
        <mxCell id="Ztqg2xYtgC4yXmTaxhsq-23" value="on_Connect_clicked()：void" style="text;strokeColor=none;fillColor=none;align=left;verticalAlign=top;spacingLeft=4;spacingRight=4;overflow=hidden;rotatable=0;points=[[0,0.5],[1,0.5]];portConstraint=eastwest;whiteSpace=wrap;fontFamily=Helvetica;labelBorderColor=none;labelBackgroundColor=none;" vertex="1" parent="Ztqg2xYtgC4yXmTaxhsq-18">
          <mxGeometry y="76" width="240" height="26" as="geometry" />
        </mxCell>
        <mxCell id="Ztqg2xYtgC4yXmTaxhsq-24" value="on_Stable_clicked()：void" style="text;strokeColor=none;fillColor=none;align=left;verticalAlign=top;spacingLeft=4;spacingRight=4;overflow=hidden;rotatable=0;points=[[0,0.5],[1,0.5]];portConstraint=eastwest;whiteSpace=wrap;fontFamily=Helvetica;labelBorderColor=none;labelBackgroundColor=none;" vertex="1" parent="Ztqg2xYtgC4yXmTaxhsq-18">
          <mxGeometry y="102" width="240" height="26" as="geometry" />
        </mxCell>
        <mxCell id="Ztqg2xYtgC4yXmTaxhsq-32" value="on_CriStable_clicked()：void" style="text;strokeColor=none;fillColor=none;align=left;verticalAlign=top;spacingLeft=4;spacingRight=4;overflow=hidden;rotatable=0;points=[[0,0.5],[1,0.5]];portConstraint=eastwest;whiteSpace=wrap;fontFamily=Helvetica;labelBorderColor=none;labelBackgroundColor=none;" vertex="1" parent="Ztqg2xYtgC4yXmTaxhsq-18">
          <mxGeometry y="128" width="240" height="26" as="geometry" />
        </mxCell>
        <mxCell id="Ztqg2xYtgC4yXmTaxhsq-29" value="on_UnStable_clicked()：void" style="text;strokeColor=none;fillColor=none;align=left;verticalAlign=top;spacingLeft=4;spacingRight=4;overflow=hidden;rotatable=0;points=[[0,0.5],[1,0.5]];portConstraint=eastwest;whiteSpace=wrap;fontFamily=Helvetica;labelBorderColor=none;labelBackgroundColor=none;" vertex="1" parent="Ztqg2xYtgC4yXmTaxhsq-18">
          <mxGeometry y="154" width="240" height="26" as="geometry" />
        </mxCell>
        <mxCell id="Ztqg2xYtgC4yXmTaxhsq-33" value="on_Alarm_clicked()：void" style="text;strokeColor=none;fillColor=none;align=left;verticalAlign=top;spacingLeft=4;spacingRight=4;overflow=hidden;rotatable=0;points=[[0,0.5],[1,0.5]];portConstraint=eastwest;whiteSpace=wrap;fontFamily=Helvetica;labelBorderColor=none;labelBackgroundColor=none;" vertex="1" parent="Ztqg2xYtgC4yXmTaxhsq-18">
          <mxGeometry y="180" width="240" height="26" as="geometry" />
        </mxCell>
        <mxCell id="Ztqg2xYtgC4yXmTaxhsq-35" value="" style="line;strokeWidth=1;fillColor=none;align=left;verticalAlign=middle;spacingTop=-1;spacingLeft=3;spacingRight=3;rotatable=0;labelPosition=right;points=[];portConstraint=eastwest;strokeColor=inherit;fontFamily=Helvetica;labelBorderColor=none;labelBackgroundColor=none;" vertex="1" parent="Ztqg2xYtgC4yXmTaxhsq-18">
          <mxGeometry y="206" width="240" height="8" as="geometry" />
        </mxCell>
        <mxCell id="Ztqg2xYtgC4yXmTaxhsq-28" value="change_range_rand_num(double)：void" style="text;strokeColor=none;fillColor=none;align=left;verticalAlign=top;spacingLeft=4;spacingRight=4;overflow=hidden;rotatable=0;points=[[0,0.5],[1,0.5]];portConstraint=eastwest;whiteSpace=wrap;fontFamily=Helvetica;labelBorderColor=none;labelBackgroundColor=none;" vertex="1" parent="Ztqg2xYtgC4yXmTaxhsq-18">
          <mxGeometry y="214" width="240" height="26" as="geometry" />
        </mxCell>
        <mxCell id="Ztqg2xYtgC4yXmTaxhsq-34" value="showEngineValues(QString)：void" style="text;strokeColor=none;fillColor=none;align=left;verticalAlign=top;spacingLeft=4;spacingRight=4;overflow=hidden;rotatable=0;points=[[0,0.5],[1,0.5]];portConstraint=eastwest;whiteSpace=wrap;fontFamily=Helvetica;labelBorderColor=none;labelBackgroundColor=none;" vertex="1" parent="Ztqg2xYtgC4yXmTaxhsq-18">
          <mxGeometry y="240" width="240" height="26" as="geometry" />
        </mxCell>
        <mxCell id="Ztqg2xYtgC4yXmTaxhsq-27" value="initPlot()：void" style="text;strokeColor=none;fillColor=none;align=left;verticalAlign=top;spacingLeft=4;spacingRight=4;overflow=hidden;rotatable=0;points=[[0,0.5],[1,0.5]];portConstraint=eastwest;whiteSpace=wrap;fontFamily=Helvetica;labelBorderColor=none;labelBackgroundColor=none;" vertex="1" parent="Ztqg2xYtgC4yXmTaxhsq-18">
          <mxGeometry y="266" width="240" height="26" as="geometry" />
        </mxCell>
        <mxCell id="Ztqg2xYtgC4yXmTaxhsq-26" value="Plot(int)：void" style="text;strokeColor=none;fillColor=none;align=left;verticalAlign=top;spacingLeft=4;spacingRight=4;overflow=hidden;rotatable=0;points=[[0,0.5],[1,0.5]];portConstraint=eastwest;whiteSpace=wrap;fontFamily=Helvetica;labelBorderColor=none;labelBackgroundColor=none;" vertex="1" parent="Ztqg2xYtgC4yXmTaxhsq-18">
          <mxGeometry y="292" width="240" height="26" as="geometry" />
        </mxCell>
        <mxCell id="Ztqg2xYtgC4yXmTaxhsq-25" value="updateAxis()：void" style="text;strokeColor=none;fillColor=none;align=left;verticalAlign=top;spacingLeft=4;spacingRight=4;overflow=hidden;rotatable=0;points=[[0,0.5],[1,0.5]];portConstraint=eastwest;whiteSpace=wrap;fontFamily=Helvetica;labelBorderColor=none;labelBackgroundColor=none;" vertex="1" parent="Ztqg2xYtgC4yXmTaxhsq-18">
          <mxGeometry y="318" width="240" height="26" as="geometry" />
        </mxCell>
        <mxCell id="Ztqg2xYtgC4yXmTaxhsq-37" value="setUi()：void" style="text;strokeColor=none;fillColor=none;align=left;verticalAlign=top;spacingLeft=4;spacingRight=4;overflow=hidden;rotatable=0;points=[[0,0.5],[1,0.5]];portConstraint=eastwest;whiteSpace=wrap;fontFamily=Helvetica;labelBorderColor=none;labelBackgroundColor=none;" vertex="1" parent="Ztqg2xYtgC4yXmTaxhsq-18">
          <mxGeometry y="344" width="240" height="26" as="geometry" />
        </mxCell>
        <mxCell id="Ztqg2xYtgC4yXmTaxhsq-38" value="sendData(QString)：void" style="text;strokeColor=none;fillColor=none;align=left;verticalAlign=top;spacingLeft=4;spacingRight=4;overflow=hidden;rotatable=0;points=[[0,0.5],[1,0.5]];portConstraint=eastwest;whiteSpace=wrap;fontFamily=Helvetica;labelBorderColor=none;labelBackgroundColor=none;" vertex="1" parent="Ztqg2xYtgC4yXmTaxhsq-18">
          <mxGeometry y="370" width="240" height="26" as="geometry" />
        </mxCell>
        <mxCell id="Ztqg2xYtgC4yXmTaxhsq-39" value="Connect()：void" style="text;strokeColor=none;fillColor=none;align=left;verticalAlign=top;spacingLeft=4;spacingRight=4;overflow=hidden;rotatable=0;points=[[0,0.5],[1,0.5]];portConstraint=eastwest;whiteSpace=wrap;fontFamily=Helvetica;labelBorderColor=none;labelBackgroundColor=none;" vertex="1" parent="Ztqg2xYtgC4yXmTaxhsq-18">
          <mxGeometry y="396" width="240" height="104" as="geometry" />
        </mxCell>
      </root>
    </mxGraphModel>
  </diagram>
</mxfile>
